<?xml version="1.0" standalone="no"?>
<!DOCTYPE svg PUBLIC "-//W3C//DTD SVG 20010904//EN"
 "http://www.w3.org/TR/2001/REC-SVG-20010904/DTD/svg10.dtd">
<svg version="1.0" xmlns="http://www.w3.org/2000/svg"
 width="300.000000pt" height="188.000000pt" viewBox="0 0 300.000000 188.000000"
 preserveAspectRatio="xMidYMid meet">
<metadata>
Created by potrace 1.10, written by Peter Selinger 2001-2011
</metadata>
<g transform="translate(0.000000,188.000000) scale(0.100000,-0.100000)"
fill="#000000" stroke="none">
<path d="M743 1093 c-33 -6 -88 -66 -101 -110 -17 -56 6 -122 56 -160 31 -23
47 -28 94 -28 50 1 62 5 88 30 26 25 33 28 48 17 55 -40 80 -52 109 -52 41 0
82 16 111 43 l23 21 25 -32 c23 -29 31 -32 79 -32 30 0 66 5 80 12 21 9 31 9
46 0 10 -7 43 -12 72 -12 43 0 58 5 75 23 26 27 27 40 7 57 -8 7 -12 17 -9 22
3 5 20 -9 36 -32 55 -75 152 -94 211 -41 34 29 38 47 17 73 -19 25 -43 29 -68
14 -19 -11 -59 1 -66 20 -4 9 -4 26 0 36 5 17 13 19 58 15 41 -3 57 0 75 15
38 30 51 9 51 -79 0 -65 3 -77 25 -99 19 -19 29 -23 43 -15 34 18 41 36 43
107 3 125 39 147 39 23 0 -86 8 -112 41 -130 17 -9 25 -7 45 12 20 19 24 32
24 85 0 93 19 94 54 4 16 -41 61 -100 76 -100 4 0 17 8 29 19 23 20 111 204
111 233 0 10 -11 25 -24 33 -30 20 -54 10 -86 -35 -12 -16 -24 -30 -28 -30 -4
0 -16 13 -27 30 -11 16 -30 34 -42 41 -19 10 -26 9 -43 -6 -19 -17 -30 -16
-62 7 -14 10 -20 9 -36 -5 -23 -21 -36 -21 -52 -2 -9 10 -32 15 -75 15 -49 0
-66 -4 -80 -20 -17 -19 -20 -19 -42 -5 -39 26 -112 29 -153 7 -31 -17 -72 -63
-83 -95 -2 -7 -8 -9 -12 -5 -5 5 -1 16 8 26 23 25 21 45 -6 70 -18 17 -36 22
-78 22 -78 0 -99 -21 -100 -103 -1 -34 0 -72 1 -84 1 -17 -4 -23 -19 -23 -30
0 -63 37 -61 68 7 96 -9 132 -56 132 -16 0 -30 -10 -43 -31 -10 -17 -20 -26
-22 -21 -9 24 -84 62 -122 62 -38 0 -117 -35 -117 -52 0 -15 -29 -8 -42 10
-26 34 -80 48 -145 35z m114 -48 c13 -9 23 -19 23 -24 0 -18 -32 -20 -55 -5
-75 49 -155 -67 -90 -131 27 -28 76 -33 94 -11 13 16 54 9 48 -8 -2 -6 -20
-20 -42 -30 -35 -17 -42 -18 -79 -5 -46 16 -86 67 -86 108 0 41 32 93 70 113
38 21 78 18 117 -7z m227 11 c49 -20 76 -61 76 -112 0 -36 -6 -51 -34 -82 -30
-33 -40 -37 -81 -37 -41 0 -51 4 -81 37 -28 31 -34 46 -34 82 0 51 27 91 74
112 39 17 40 17 80 0z m176 -91 l0 -105 45 0 c37 0 45 -3 45 -18 0 -16 -9 -18
-65 -18 l-65 1 0 123 c0 115 1 122 20 122 19 0 20 -7 20 -105z m278 82 c3 -14
-5 -17 -47 -17 l-51 0 0 -35 0 -35 51 0 c42 0 50 -3 47 -17 -3 -14 -12 -17
-51 -14 l-47 3 0 -36 0 -36 50 0 c42 0 50 -3 50 -18 0 -16 -9 -18 -70 -18
l-70 1 0 116 c0 64 2 118 4 120 2 2 33 4 68 3 51 0 64 -4 66 -17z m240 -3 c12
-8 22 -18 22 -23 0 -18 -32 -20 -55 -5 -48 32 -115 -11 -115 -73 0 -64 77
-107 120 -68 18 17 53 10 47 -9 -2 -6 -20 -19 -41 -30 -32 -16 -44 -17 -76 -7
-67 20 -102 88 -80 156 24 73 109 101 178 59z m202 4 c0 -13 -8 -18 -26 -18
l-25 0 2 -102 c1 -88 -1 -103 -15 -106 -14 -3 -16 10 -16 102 l0 106 -25 0
c-17 0 -25 6 -25 18 0 14 10 17 65 17 55 0 65 -3 65 -17z m102 -103 c0 -102
-2 -120 -16 -123 -14 -3 -16 12 -16 123 0 111 2 126 16 123 14 -3 16 -21 16
-123z m132 43 l37 -83 37 83 c26 58 42 82 54 82 10 0 18 -3 18 -7 0 -12 -104
-233 -110 -233 -4 0 -89 182 -108 232 -2 4 5 8 16 8 14 0 28 -20 56 -82z
m-1358 -17 c25 4 34 -4 34 -31 0 -27 -3 -30 -23 -25 -12 4 -35 1 -50 -4 -44
-17 -75 8 -62 50 7 22 32 28 66 17 14 -5 30 -8 35 -7z"/>
<path d="M989 1001 c-17 -18 -29 -40 -29 -56 0 -34 50 -85 84 -85 41 0 80 41
80 85 0 29 -7 43 -28 61 -37 32 -71 30 -107 -5z m91 -56 c0 -29 -28 -47 -53
-34 -40 23 -6 90 35 68 10 -5 18 -21 18 -34z"/>
</g>
</svg>
